<svg width="128" height="32" viewBox="0 0 128 32" fill="none" xmlns="http://www.w3.org/2000/svg">
<g clip-path="url(#clip0_1_42)">
<path d="M0.452057 27.0001H7.91096C11.4479 27.0001 14.3151 24.1328 14.3151 20.5959H6.85617C3.31927 20.5959 0.452057 23.4632 0.452057 27.0001Z" fill="black"/>
<path d="M0.785721 11.4041V20.8219C4.32261 20.8219 7.18983 17.9547 7.18983 14.4178V5C3.65294 5 0.785721 7.86722 0.785721 11.4041Z" fill="black"/>
<path d="M14.089 5.5H21.0271C20.7733 8.52674 18.2362 10.9041 15.1438 10.9041H8.20581C8.45962 7.87737 10.9967 5.5 14.089 5.5Z" stroke="black"/>
<path d="M21.5479 20.2192V10.8014C18.011 10.8014 15.1438 13.6686 15.1438 17.2055V26.6233C18.6807 26.6233 21.5479 23.7561 21.5479 20.2192Z" fill="black"/>
</g>
<path d="M34.5 8.40003H37.88L41.94 19.52L46.02 8.40003H49.4V22H46.92L46.98 12.06L43.46 22H40.4L36.9 12.06L36.96 22H34.5V8.40003Z" fill="black"/>
<path d="M55.3306 22.22C54.344 22.22 53.5573 21.9667 52.9706 21.46C52.384 20.94 52.0906 20.2734 52.0906 19.46C52.0906 18.5267 52.5306 17.7667 53.4106 17.18C54.2906 16.58 55.4773 16.2467 56.9706 16.18L58.0906 16.14V15.84C58.0906 15.1867 57.9106 14.68 57.5506 14.32C57.1906 13.9467 56.6906 13.76 56.0506 13.76C55.424 13.76 54.9106 13.94 54.5106 14.3C54.124 14.66 53.904 15.1734 53.8506 15.84L51.5906 15.64C51.6706 14.4534 52.1173 13.5134 52.9306 12.82C53.7573 12.1134 54.8106 11.76 56.0906 11.76C56.9573 11.76 57.724 11.94 58.3906 12.3C59.0573 12.6467 59.5706 13.1467 59.9306 13.8C60.304 14.4534 60.4906 15.2134 60.4906 16.08V19C60.4906 20.16 60.5706 21.16 60.7306 22H58.4306C58.3373 21.6267 58.2906 21.12 58.2906 20.48C58.144 20.9867 57.7973 21.4067 57.2506 21.74C56.704 22.06 56.064 22.22 55.3306 22.22ZM56.0506 20.6C56.6906 20.6 57.204 20.3934 57.5906 19.98C57.9773 19.5534 58.1706 18.9467 58.1706 18.16V17.6L57.1106 17.66C56.2706 17.7 55.624 17.8734 55.1706 18.18C54.7173 18.4734 54.4906 18.8734 54.4906 19.38C54.4906 19.7534 54.6306 20.0534 54.9106 20.28C55.1906 20.4934 55.5706 20.6 56.0506 20.6Z" fill="black"/>
<path d="M68.3794 11.84C69.526 11.84 70.4327 12.2134 71.0994 12.96C71.766 13.6934 72.0994 14.6934 72.0994 15.96V22H69.6994V16.3C69.6994 15.4867 69.5194 14.8734 69.1594 14.46C68.8127 14.0334 68.2927 13.82 67.5994 13.82C66.866 13.82 66.306 14.0734 65.9194 14.58C65.5327 15.0734 65.3394 15.8 65.3394 16.76V22H62.9394V12.08H65.2794V13.86C65.5327 13.22 65.926 12.7267 66.4594 12.38C66.9927 12.02 67.6327 11.84 68.3794 11.84Z" fill="black"/>
<path d="M77.5666 22.22C76.5799 22.22 75.7932 21.9667 75.2066 21.46C74.6199 20.94 74.3266 20.2734 74.3266 19.46C74.3266 18.5267 74.7666 17.7667 75.6466 17.18C76.5266 16.58 77.7132 16.2467 79.2066 16.18L80.3266 16.14V15.84C80.3266 15.1867 80.1466 14.68 79.7866 14.32C79.4266 13.9467 78.9266 13.76 78.2866 13.76C77.6599 13.76 77.1466 13.94 76.7466 14.3C76.3599 14.66 76.1399 15.1734 76.0866 15.84L73.8266 15.64C73.9066 14.4534 74.3532 13.5134 75.1666 12.82C75.9932 12.1134 77.0466 11.76 78.3266 11.76C79.1932 11.76 79.9599 11.94 80.6266 12.3C81.2932 12.6467 81.8066 13.1467 82.1666 13.8C82.5399 14.4534 82.7266 15.2134 82.7266 16.08V19C82.7266 20.16 82.8066 21.16 82.9666 22H80.6666C80.5732 21.6267 80.5266 21.12 80.5266 20.48C80.3799 20.9867 80.0332 21.4067 79.4866 21.74C78.9399 22.06 78.2999 22.22 77.5666 22.22ZM78.2866 20.6C78.9266 20.6 79.4399 20.3934 79.8266 19.98C80.2132 19.5534 80.4066 18.9467 80.4066 18.16V17.6L79.3466 17.66C78.5066 17.7 77.8599 17.8734 77.4066 18.18C76.9532 18.4734 76.7266 18.8734 76.7266 19.38C76.7266 19.7534 76.8666 20.0534 77.1466 20.28C77.4266 20.4934 77.8066 20.6 78.2866 20.6Z" fill="black"/>
<path d="M90.1153 26.12C88.6486 26.12 87.4686 25.78 86.5753 25.1C85.682 24.42 85.1953 23.4867 85.1153 22.3L87.4153 22.08C87.482 22.7334 87.7553 23.2334 88.2353 23.58C88.7153 23.94 89.3286 24.12 90.0753 24.12C90.9286 24.12 91.582 23.86 92.0353 23.34C92.4886 22.8334 92.7153 22.1134 92.7153 21.18V20.08C92.502 20.52 92.102 20.88 91.5153 21.16C90.942 21.4267 90.3086 21.56 89.6153 21.56C88.6953 21.56 87.862 21.3534 87.1153 20.94C86.382 20.5134 85.802 19.9334 85.3753 19.2C84.962 18.4534 84.7553 17.62 84.7553 16.7C84.7553 15.78 84.9686 14.9534 85.3953 14.22C85.822 13.4867 86.4086 12.9134 87.1553 12.5C87.902 12.0734 88.742 11.86 89.6753 11.86C90.3553 11.86 90.9886 12 91.5753 12.28C92.162 12.56 92.5886 12.9134 92.8553 13.34V12.08H95.1153V20.64C95.1153 22.3467 94.6686 23.6867 93.7753 24.66C92.8953 25.6334 91.6753 26.12 90.1153 26.12ZM90.0153 19.56C90.842 19.56 91.522 19.2934 92.0553 18.76C92.602 18.2134 92.8753 17.5267 92.8753 16.7C92.8753 15.8734 92.602 15.1934 92.0553 14.66C91.522 14.1267 90.842 13.86 90.0153 13.86C89.202 13.86 88.522 14.1267 87.9753 14.66C87.442 15.1934 87.1753 15.8734 87.1753 16.7C87.1753 17.5267 87.442 18.2134 87.9753 18.76C88.5086 19.2934 89.1886 19.56 90.0153 19.56Z" fill="black"/>
<path d="M97.7005 12.08H100.1V22H97.7005V12.08ZM98.9005 10.54C98.4205 10.54 98.0138 10.38 97.6805 10.06C97.3605 9.7267 97.2005 9.32003 97.2005 8.84003C97.2005 8.37337 97.3605 7.98003 97.6805 7.66003C98.0138 7.3267 98.4205 7.16003 98.9005 7.16003C99.3671 7.16003 99.7671 7.3267 100.1 7.66003C100.434 7.98003 100.6 8.37337 100.6 8.84003C100.6 9.32003 100.434 9.7267 100.1 10.06C99.7671 10.38 99.3671 10.54 98.9005 10.54Z" fill="black"/>
<path d="M107.325 22.22C106.285 22.22 105.458 21.8934 104.845 21.24C104.245 20.5867 103.945 19.64 103.945 18.4V14.1H101.985V12.08H103.945V9.58003H106.305V12.08H109.205V14.1H106.305V18.22C106.305 19.4734 106.811 20.1 107.825 20.1C108.251 20.1 108.605 20.04 108.885 19.92L109.085 21.94C108.685 22.1267 108.098 22.22 107.325 22.22Z" fill="black"/>
<path d="M112.403 26C111.896 26 111.456 25.9467 111.083 25.84L111.103 23.78C111.409 23.8734 111.743 23.92 112.103 23.92C112.663 23.92 113.129 23.7867 113.503 23.52C113.889 23.2667 114.209 22.84 114.463 22.24L114.643 21.76L110.303 12.08H113.023L115.983 19.14L118.563 12.08H121.223L116.983 22.12C116.423 23.48 115.763 24.4667 115.003 25.08C114.243 25.6934 113.376 26 112.403 26Z" fill="black"/>
<defs>
<clipPath id="clip0_1_42">
<rect width="22" height="22" fill="white" transform="translate(0 5)"/>
</clipPath>
</defs>
</svg>
